# xmcd
#
# Track frame offsets:
#	150
#	27423
#	38656
#	52395
#	62121
#	74498
#	90190
#	107795
#	123984
#	138560
#	159710
#	180625
#	199448
#	209309
#
# Disc length: 3032 seconds
#
# Revision: 1
# Processed by: cddbd v1.5.2PL0 Copyright (c) Steve Scherf et al.
# Submitted via: audiograbber 1.83.01
#
DISCID=d40bd60e
DTITLE=Lutz Drenkwitz - Berlin
DYEAR=2014
DGENRE=National Folk
TTITLE0=Pogo mit Rollator
TTITLE1=Cinderella
TTITLE2=Bye Bye vorbei
TTITLE3=Oh Susanna
TTITLE4=Krimineller Tango
TTITLE5=Marodierende Touristenströme
TTITLE6=Ich bleib stehn, wenn Wildgänse ziehn
TTITLE7=Ich hab die große Stadt satt
TTITLE8=Verschissen wegen Country Roads
TTITLE9=Statist im eigenene Leben
TTITLE10=Hawaii Blues
TTITLE11=Calamity Jane
TTITLE12=Ich hab noch nen Koffer in Berlin
TTITLE13=Lied mit gutem Ausgang
EXTD=
EXTT0=
EXTT1=
EXTT2=
EXTT3=
EXTT4=
EXTT5=
EXTT6=
EXTT7=
EXTT8=
EXTT9=
EXTT10=
EXTT11=
EXTT12=
EXTT13=
PLAYORDER=
